<svg xmlns="http://www.w3.org/2000/svg" width="512" height="512" viewBox="0 0 14 14"><path fill="#EF7C16" fill-rule="evenodd" d="M5.656 1.195A1.514 1.514 0 017.084.186H7.7a1.49 1.49 0 01.597 2.857l-1.319.577a.264.264 0 00-.13.122h1.718a.625.625 0 110 1.25h-2.37a.625.625 0 01-.626-.625v-.505c0-.602.356-1.146.907-1.387l1.32-.577a.24.24 0 00-.097-.462h-.616a.264.264 0 00-.249.176.625.625 0 01-1.179-.417M11.76.47a.829.829 0 011.452.546v1.839a.625.625 0 010 1.248v.265a.625.625 0 01-1.25 0v-.264h-1.53A.84.84 0 019.8 2.709zm-.425 2.384l.627-.717v.717zM8.915 13.8a2.7 2.7 0 01-1.75-.415 24.23 24.23 0 01-6.56-6.56 2.7 2.7 0 01.41-3.37l.38-.38a.91.91 0 011.28 0l1.54 1.6a.9.9 0 010 1.27.91.91 0 000 1.28l2.55 2.55a.91.91 0 001.28 0 .9.9 0 011.27 0l1.6 1.59a.91.91 0 010 1.28l-.38.38a2.7 2.7 0 01-1.62.775" clip-rule="evenodd"/></svg>